# xmcd
#
# Track frame offsets:
#        150
#        13956
#        30696
#        47843
#        60011
#        74987
#        88954
#        109096
#        123347
#        140493
#        157259
#        172157
#
# Disc length: 2465 seconds
#
# Revision: 0
# Processed by: cddbd v1.5.2PL0 Copyright (c) Steve Scherf et al.
# Submitted via: ExactAudioCopyFreeDBPlugin 1.0   GR/22.03.2012
#
DISCID=b4099f0c
DTITLE=The Winklepickers - Twelve R&B Knock-Outs
DYEAR=2007
DGENRE=R&B
TTITLE0=You can't judge a book by it's cover
TTITLE1=Don't start me to talking
TTITLE2=All shook up
TTITLE3=Good time Charlie
TTITLE4=Someday babe
TTITLE5=Checkin'up on my baby
TTITLE6=High and lonesome
TTITLE7=29 ways
TTITLE8=Just your fool
TTITLE9=I can tell
TTITLE10=Keep it to yourself
TTITLE11=Wait on time
EXTD=
EXTT0=
EXTT1=
EXTT2=
EXTT3=
EXTT4=
EXTT5=
EXTT6=
EXTT7=
EXTT8=
EXTT9=
EXTT10=
EXTT11=
PLAYORDER=
